
<svg width="150" height="150" viewBox="0 0 150 150" fill="none" xmlns="http://www.w3.org/2000/svg">
<rect width="150" height="150" rx="25" fill="url(#paint0_linear_1001_2)"/>
<path fill-rule="evenodd" clip-rule="evenodd" d="M69.9925 55.8465H108.656C109.126 55.8465 109.362 55.8465 109.541 55.7549C109.699 55.6744 109.828 55.5459 109.908 55.3878C110 55.2081 110 54.9729 110 54.5024V44.3441C110 43.8736 110 43.6384 109.908 43.4587C109.828 43.3006 109.699 43.1721 109.541 43.0916C109.362 43 109.126 43 108.656 43H69.9925C66.2145 43 64.3255 43 62.7849 43.4996C60.3026 44.3044 58.3044 46.3026 57.4996 48.7849C57 50.3255 57 52.2145 57 55.9925V94.0075C57 97.7855 57 99.6745 57.4996 101.215C58.3044 103.697 60.3026 105.696 62.7849 106.5C64.3255 107 66.2145 107 69.9925 107H80.0075C83.7855 107 85.6745 107 87.2151 106.5C89.6974 105.696 91.6956 103.697 92.5004 101.215C93 99.6745 93 97.7855 93 94.0075V68.8465C93 68.376 93 68.1408 92.9084 67.9611C92.8279 67.803 92.6994 67.6745 92.5413 67.5941C92.3616 67.5024 92.1264 67.5024 91.6559 67.5024H69.8441C69.3736 67.5024 69.1384 67.5024 68.9587 67.5941C68.8006 67.6745 68.6721 67.803 68.5916 67.9611C68.5 68.1408 68.5 68.376 68.5 68.8465V76.5024C68.5 76.9729 68.5 77.2081 68.5916 77.3878C68.6721 77.5459 68.8006 77.6744 68.9587 77.7549C69.1384 77.8465 69.3736 77.8465 69.8441 77.8465H80.6559C81.1264 77.8465 81.3616 77.8465 81.5413 77.9382C81.6994 78.0186 81.8279 78.1471 81.9084 78.3052C82 78.4849 82 78.7201 82 79.1906V94.1559C82 94.6264 82 94.8616 81.9084 95.0413C81.8279 95.1994 81.6994 95.3279 81.5413 95.4084C81.3616 95.5 81.1264 95.5 80.6559 95.5H69.8441C69.3736 95.5 69.1384 95.5 68.9587 95.4084C68.8006 95.3279 68.6721 95.1994 68.5916 95.0413C68.5 94.8616 68.5 94.6264 68.5 94.1559V55.8465H69.9925Z" fill="white"/>
<defs>
<linearGradient id="paint0_linear_1001_2" x1="75" y1="0" x2="75" y2="150" gradientUnits="userSpaceOnUse">
<stop stop-color="#1B91FA"/>
<stop offset="1" stop-color="#0041FF"/>
</linearGradient>
</defs>
</svg>
