<svg width="360" height="72" viewBox="0 0 360 72" fill="none" xmlns="http://www.w3.org/2000/svg">
<path d="M160.2 0C168.467 0 174.9 2.43333 179.5 7.3C184.1 12.1 186.4 19.0667 186.4 28.2V71.2H170.2V28.7C170.2 23.7667 168.9 20.0667 166.3 17.6C163.767 15.0667 160.4 13.8 156.2 13.8C151.6 13.8 147.933 15.1333 145.2 17.8C142.467 20.4 141.1 24.3667 141.1 29.7V71.2H124.9V28.7C124.9 23.7667 123.7 20.0667 121.3 17.6C118.9 15.0667 115.633 13.8 111.5 13.8C106.967 13.8 103.333 15.1333 100.6 17.8C97.8667 20.4 96.5 24.3667 96.5 29.7V71.2H80.3V1.2H96V9.8C98.1333 6.66667 100.967 4.26667 104.5 2.6C108.033 0.866665 112.1 0 116.7 0C121.5 0 125.7 0.899998 129.3 2.7C132.9 4.43333 135.667 6.96666 137.6 10.3C140 6.96666 143.133 4.43333 147 2.7C150.933 0.899998 155.333 0 160.2 0Z" fill="url(#paint0_linear_1006_5)"/>
<path d="M228.37 59.5C231.17 59.5 233.637 59.1 235.77 58.3C237.97 57.4333 240.004 56.1 241.87 54.3L250.17 63.3C245.104 69.1 237.704 72 227.97 72C221.904 72 216.537 70.8333 211.87 68.5C207.204 66.1 203.604 62.8 201.07 58.6C198.537 54.4 197.27 49.6333 197.27 44.3C197.27 39.0333 198.504 34.3 200.97 30.1C203.504 25.8333 206.937 22.5333 211.27 20.2C215.67 17.8 220.604 16.6 226.07 16.6C231.204 16.6 235.87 17.7 240.07 19.9C244.27 22.0333 247.604 25.1667 250.07 29.3C252.604 33.3667 253.87 38.2 253.87 43.8L214.07 51.5C215.204 54.1667 216.97 56.1667 219.37 57.5C221.837 58.8333 224.837 59.5 228.37 59.5ZM226.07 28.4C222.137 28.4 218.937 29.6667 216.47 32.2C214.004 34.7333 212.704 38.2333 212.57 42.7L238.77 37.6C238.037 34.8 236.537 32.5667 234.27 30.9C232.004 29.2333 229.27 28.4 226.07 28.4Z" fill="url(#paint1_linear_1006_5)"/>
<path d="M291.456 59.5C294.256 59.5 296.723 59.1 298.856 58.3C301.056 57.4333 303.09 56.1 304.956 54.3L313.256 63.3C308.19 69.1 300.79 72 291.056 72C284.99 72 279.623 70.8333 274.956 68.5C270.29 66.1 266.69 62.8 264.156 58.6C261.623 54.4 260.356 49.6333 260.356 44.3C260.356 39.0333 261.59 34.3 264.056 30.1C266.59 25.8333 270.023 22.5333 274.356 20.2C278.756 17.8 283.69 16.6 289.156 16.6C294.29 16.6 298.956 17.7 303.156 19.9C307.356 22.0333 310.69 25.1667 313.156 29.3C315.69 33.3667 316.956 38.2 316.956 43.8L277.156 51.5C278.29 54.1667 280.056 56.1667 282.456 57.5C284.923 58.8333 287.923 59.5 291.456 59.5ZM289.156 28.4C285.223 28.4 282.023 29.6667 279.556 32.2C277.09 34.7333 275.79 38.2333 275.656 42.7L301.856 37.6C301.123 34.8 299.623 32.5667 297.356 30.9C295.09 29.2333 292.356 28.4 289.156 28.4Z" fill="url(#paint2_linear_1006_5)"/>
<path d="M359.842 68.6C358.309 69.7333 356.409 70.6 354.142 71.2C351.942 71.7333 349.642 72 347.242 72C340.776 72 335.809 70.3667 332.342 67.1C328.876 63.8333 327.142 59.0333 327.142 52.7V5.5H342.742V18.6H356.042V30.6H342.742V52.5C342.742 54.7667 343.309 56.5333 344.442 57.8C345.576 59 347.209 59.6 349.342 59.6C351.742 59.6 353.876 58.9333 355.742 57.6L359.842 68.6Z" fill="url(#paint3_linear_1006_5)"/>
<path fill-rule="evenodd" clip-rule="evenodd" d="M29.9925 17.0465H68.656C69.1265 17.0465 69.3617 17.0465 69.5414 16.9549C69.6994 16.8744 69.8279 16.7459 69.9084 16.5878C70 16.4081 70 16.1729 70 15.7025V2.544C70 2.07356 70 1.83834 69.9084 1.65865C69.8279 1.50059 69.6994 1.37209 69.5414 1.29156C69.3617 1.2 69.1264 1.2 68.656 1.2H31.3365C30.8661 1.2 30.6309 1.2 30.4512 1.29156C30.2931 1.37209 30.1646 1.50059 30.0841 1.65865C29.9925 1.83834 29.9925 2.07356 29.9925 2.544V17.0465L17.2914 4.32545C16.5716 3.60453 16.2117 3.24407 15.9026 3.21958C15.6345 3.19833 15.3724 3.30677 15.1977 3.51127C14.9963 3.74695 14.9963 4.25632 14.9963 5.27506V20.4224L2.29509 7.70143C1.5753 6.98051 1.2154 6.62005 0.906363 6.59556C0.638223 6.57431 0.376124 6.68276 0.201387 6.88725C0 7.12293 0 7.6323 0 8.65104V23.2423C0 23.4476 0 23.5502 0.0231634 23.6468C0.0437001 23.7324 0.0775735 23.8143 0.123543 23.8894C0.175391 23.9741 0.247897 24.0467 0.392907 24.1919L14.9963 38.8181V69.856C14.9963 70.3264 14.9963 70.5617 15.0878 70.7414C15.1684 70.8994 15.2969 71.0279 15.4549 71.1085C15.6346 71.2 15.8698 71.2 16.3403 71.2H29.5836C30.0541 71.2 30.2893 71.2 30.469 71.1085C30.6271 71.0279 30.7556 70.8994 30.8361 70.7414C30.9276 70.5617 30.9276 70.3264 30.9276 69.856V56.0086C30.9276 55.5381 30.9276 55.3029 31.0192 55.1232C31.0997 54.9652 31.2282 54.8367 31.3863 54.7561C31.566 54.6646 31.8012 54.6646 32.2716 54.6646H68.656C69.1265 54.6646 69.3617 54.6646 69.5414 54.573C69.6994 54.4925 69.8279 54.364 69.9084 54.2059C70 54.0262 70 53.791 70 53.3206V40.1621C70 39.6917 70 39.4564 69.9084 39.2768C69.8279 39.1187 69.6994 38.9902 69.5414 38.9097C69.3617 38.8181 69.1264 38.8181 68.656 38.8181H14.9963L14.9963 20.4224L27.6974 33.1435C28.4172 33.8644 28.7771 34.2248 29.0862 34.2493C29.3543 34.2706 29.6164 34.1621 29.7911 33.9576C29.9925 33.722 29.9925 33.2126 29.9925 32.1938V17.0465Z" fill="url(#paint4_linear_1006_5)"/>
<defs>
<linearGradient id="paint0_linear_1006_5" x1="179.921" y1="70.8" x2="179.921" y2="1.20004" gradientUnits="userSpaceOnUse">
<stop stop-color="#222222"/>
<stop offset="1" stop-color="#111111"/>
</linearGradient>
<linearGradient id="paint1_linear_1006_5" x1="179.921" y1="70.8" x2="179.921" y2="1.20004" gradientUnits="userSpaceOnUse">
<stop stop-color="#222222"/>
<stop offset="1" stop-color="#111111"/>
</linearGradient>
<linearGradient id="paint2_linear_1006_5" x1="179.921" y1="70.8" x2="179.921" y2="1.20004" gradientUnits="userSpaceOnUse">
<stop stop-color="#222222"/>
<stop offset="1" stop-color="#111111"/>
</linearGradient>
<linearGradient id="paint3_linear_1006_5" x1="179.921" y1="70.8" x2="179.921" y2="1.20004" gradientUnits="userSpaceOnUse">
<stop stop-color="#222222"/>
<stop offset="1" stop-color="#111111"/>
</linearGradient>
<linearGradient id="paint4_linear_1006_5" x1="179.921" y1="70.8" x2="179.921" y2="1.20004" gradientUnits="userSpaceOnUse">
<stop stop-color="#222222"/>
<stop offset="1" stop-color="#111111"/>
</linearGradient>
</defs>
</svg>
