<svg width="160" height="34" viewBox="0 0 160 34" fill="none" xmlns="http://www.w3.org/2000/svg">
<path d="M41.9096 33.6158C41.3302 33.6158 41.0406 33.6158 40.7984 33.5759C39.5295 33.3669 38.5349 32.3724 38.3259 31.1034C38.286 30.8612 38.286 30.5716 38.286 29.9922V4.07792C38.286 3.07522 38.286 2.57387 38.4047 2.16459C38.691 1.17708 39.4631 0.404981 40.4506 0.118664C40.8599 0 41.3612 0 42.3639 0C42.9569 0 43.2535 0 43.5274 0.0513313C44.1827 0.174142 44.7784 0.51176 45.2205 1.01087C45.4053 1.21948 45.5577 1.47386 45.8624 1.98263L58.0098 22.2648C58.3943 22.9069 57.9318 23.7232 57.1833 23.7232C56.438 23.7232 55.975 22.9132 56.3532 22.271L68.2954 1.99103C68.5887 1.49296 68.7353 1.24393 68.9127 1.03863C69.3602 0.520767 69.9712 0.171465 70.6445 0.0486781C70.9114 0 71.2004 0 71.7785 0C72.7453 0 73.2287 0 73.6245 0.11056C74.6322 0.39197 75.4205 1.17801 75.7048 2.18488C75.8164 2.58045 75.8178 3.06385 75.8206 4.03064L75.8942 29.9833C75.8958 30.5629 75.8966 30.8527 75.8575 31.0949C75.6516 32.3676 74.6555 33.3665 73.3834 33.576C73.1413 33.6158 72.8515 33.6158 72.2719 33.6158C71.6949 33.6158 71.4064 33.6158 71.165 33.5762C69.8971 33.3681 68.9024 32.3756 68.6916 31.108C68.6515 30.8668 68.6509 30.5783 68.6496 30.0012L68.6107 11.6749C68.6101 11.4068 68.8272 11.1893 69.0953 11.1893C69.4705 11.1893 69.7034 11.5974 69.5124 11.9204L59.6782 28.5559C59.6594 28.5878 59.65 28.6037 59.641 28.6186C59.1035 29.5043 58.147 30.05 57.111 30.0619C57.0936 30.0621 57.0751 30.0621 57.0381 30.0621C57.0015 30.0621 56.9832 30.0621 56.966 30.062C55.9397 30.0502 54.9906 29.5146 54.4501 28.6421C54.4411 28.6275 54.4316 28.6118 54.4127 28.5805L44.4477 12.0764C44.2124 11.6866 44.493 11.1893 44.9483 11.1893C45.2713 11.1893 45.5332 11.4511 45.5332 11.7741V29.9922C45.5332 30.5716 45.5332 30.8612 45.4933 31.1034C45.2842 32.3724 44.2897 33.3669 43.0207 33.5759C42.7786 33.6158 42.4889 33.6158 41.9096 33.6158Z" fill="url(#paint0_linear_1011_9)"/>
<path d="M96.0286 34C93.1043 34 90.5297 33.4237 88.3047 32.2712C86.1114 31.1186 84.4109 29.5499 83.203 27.565C81.9952 25.548 81.3912 23.2589 81.3912 20.6977C81.3912 18.1045 81.9793 15.8154 83.1554 13.8305C84.3632 11.8136 86.0002 10.2448 88.0663 9.12429C90.1323 7.97175 92.4686 7.39548 95.075 7.39548C97.5861 7.39548 99.8429 7.93974 101.845 9.02825C103.88 10.0847 105.485 11.6215 106.661 13.6384C107.837 15.6234 108.425 18.0085 108.425 20.7938C108.425 21.0819 108.409 21.4181 108.377 21.8023C108.326 22.3749 107.844 22.8107 107.269 22.8107H89.6315C88.4247 22.8107 87.4464 21.8325 87.4464 20.6257C87.4464 19.4189 88.4247 18.4407 89.6315 18.4407H102.02C102.567 18.4407 102.728 19.1861 102.23 19.4118C101.893 19.5643 101.51 19.3178 101.479 18.9497C101.392 17.9311 101.133 17.0251 100.701 16.2316C100.161 15.2392 99.4138 14.4708 98.4602 13.9266C97.5066 13.3503 96.3941 13.0621 95.1227 13.0621C93.8513 13.0621 92.7229 13.3503 91.7375 13.9266C90.7839 14.4708 90.037 15.2552 89.4966 16.2797C88.9563 17.2721 88.6861 18.4567 88.6861 19.8333V20.9859C88.6861 22.3945 88.9881 23.6431 89.592 24.7316C90.2277 25.7881 91.1018 26.6045 92.2143 27.1808C93.3586 27.725 94.6936 27.9972 96.2193 27.9972C97.5861 27.9972 98.7781 27.7891 99.7952 27.3729C99.8905 27.3351 99.9849 27.2956 100.079 27.2544C100.763 26.9532 101.105 26.8026 101.118 26.797C102.646 26.142 103.36 26.2923 104.494 27.5075C104.504 27.5178 104.593 27.6158 104.773 27.8118C104.93 27.9833 104.537 27.5545 104.55 27.569C105.551 28.6906 105.282 31.1265 104.061 32.0031C104.045 32.0144 104.949 31.3829 104.588 31.6355C103.858 32.1452 103.055 32.5812 102.179 32.9435C100.399 33.6478 98.349 34 96.0286 34Z" fill="url(#paint1_linear_1011_9)"/>
<path d="M126.107 34C123.183 34 120.608 33.4237 118.383 32.2712C116.19 31.1186 114.489 29.5499 113.282 27.565C112.074 25.548 111.47 23.2589 111.47 20.6977C111.47 18.1045 112.058 15.8154 113.234 13.8305C114.442 11.8136 116.079 10.2448 118.145 9.12429C120.211 7.97175 122.547 7.39548 125.154 7.39548C127.665 7.39548 129.921 7.93974 131.924 9.02825C133.958 10.0847 135.563 11.6215 136.74 13.6384C137.916 15.6234 138.504 18.0085 138.504 20.7938C138.504 21.0819 138.488 21.4181 138.456 21.8023C138.404 22.3749 137.923 22.8107 137.348 22.8107H119.71C118.503 22.8107 117.525 21.8325 117.525 20.6257C117.525 19.4189 118.503 18.4407 119.71 18.4407H132.098C132.645 18.4407 132.806 19.1861 132.308 19.4118C131.972 19.5643 131.589 19.3178 131.558 18.9497C131.471 17.9311 131.212 17.0251 130.78 16.2316C130.239 15.2392 129.492 14.4708 128.539 13.9266C127.585 13.3503 126.473 13.0621 125.201 13.0621C123.93 13.0621 122.801 13.3503 121.816 13.9266C120.862 14.4708 120.116 15.2552 119.575 16.2797C119.035 17.2721 118.765 18.4567 118.765 19.8333V20.9859C118.765 22.3945 119.067 23.6431 119.671 24.7316C120.306 25.7881 121.18 26.6045 122.293 27.1808C123.437 27.725 124.772 27.9972 126.298 27.9972C127.665 27.9972 128.857 27.7891 129.874 27.3729C129.969 27.3351 130.063 27.2956 130.157 27.2544C130.841 26.9532 131.184 26.8026 131.197 26.797C132.724 26.142 133.438 26.2923 134.572 27.5075C134.582 27.5178 134.672 27.6158 134.851 27.8118C135.008 27.9833 134.616 27.5545 134.629 27.569C135.629 28.6906 135.36 31.1265 134.139 32.0031C134.124 32.0144 135.028 31.3829 134.666 31.6355C133.936 32.1452 133.134 32.5812 132.258 32.9435C130.478 33.6478 128.428 34 126.107 34Z" fill="url(#paint2_linear_1011_9)"/>
<path d="M153.945 34C150.925 34 148.573 33.2316 146.888 31.6949C145.204 30.1262 144.361 27.8051 144.361 24.7316V5.78391C144.361 5.11584 144.361 4.78181 144.414 4.50365C144.645 3.29422 145.591 2.34832 146.8 2.11796C147.078 2.06497 147.412 2.06497 148.08 2.06497C148.748 2.06497 149.082 2.06497 149.361 2.11796C150.57 2.34832 151.516 3.29422 151.746 4.50365C151.799 4.78181 151.799 5.11584 151.799 5.78391V24.6356C151.799 25.7241 152.085 26.5725 152.657 27.1808C153.23 27.7571 154.008 28.0452 154.994 28.0452C156.592 28.0452 158.57 28.5955 159.137 30.0897L159.273 30.4487C159.701 31.5792 159.319 32.891 158.186 33.3138C157.884 33.4266 157.567 33.5272 157.235 33.6158C156.186 33.8719 155.089 34 153.945 34ZM143.285 14.1186C141.694 14.1186 140.404 12.8286 140.404 11.2373C140.404 9.64596 141.694 8.35593 143.285 8.35593H155.307C156.898 8.35593 158.188 9.64596 158.188 11.2373C158.188 12.8286 156.898 14.1186 155.307 14.1186H143.285Z" fill="url(#paint3_linear_1011_9)"/>
<path fill-rule="evenodd" clip-rule="evenodd" d="M14.3 7.60988H32.7343C32.9586 7.60988 33.0707 7.60988 33.1564 7.56592C33.2318 7.52724 33.293 7.46553 33.3314 7.38963C33.3751 7.30334 33.3751 7.19038 33.3751 6.96446V0.645426C33.3751 0.419507 33.3751 0.306547 33.3314 0.220257C33.293 0.144354 33.2318 0.0826435 33.1564 0.0439692C33.0707 2.2899e-06 32.9586 2.2899e-06 32.7343 2.2899e-06H14.9409C14.7165 2.2899e-06 14.6044 2.2899e-06 14.5187 0.0439692C14.4434 0.0826435 14.3821 0.144354 14.3437 0.220257C14.3 0.306547 14.3 0.419507 14.3 0.645426V7.60988L8.2443 1.50092C7.90111 1.15472 7.72951 0.981617 7.58217 0.969856C7.45432 0.959651 7.32936 1.01173 7.24604 1.10993C7.15003 1.22311 7.15003 1.46773 7.15003 1.95695V9.23112L1.09427 3.12216C0.751081 2.77595 0.579486 2.60285 0.432142 2.59109C0.304296 2.58089 0.179331 2.63296 0.0960186 2.73117C0 2.84435 0 3.08896 0 3.57819V10.5853C0 10.6839 0 10.7331 0.011044 10.7795C0.0208356 10.8206 0.036986 10.86 0.0589035 10.896C0.0836243 10.9367 0.118194 10.9716 0.187333 11.0413L7.15002 18.0652V32.9704C7.15002 33.1963 7.15002 33.3093 7.19368 33.3956C7.23207 33.4715 7.29334 33.5332 7.3687 33.5719C7.45437 33.6158 7.56652 33.6158 7.79083 33.6158H14.1051C14.3294 33.6158 14.4415 33.6158 14.5272 33.5719C14.6026 33.5332 14.6638 33.4715 14.7022 33.3956C14.7459 33.3093 14.7459 33.1963 14.7459 32.9704V26.3205C14.7459 26.0946 14.7459 25.9816 14.7895 25.8953C14.8279 25.8194 14.8892 25.7577 14.9646 25.719C15.0502 25.6751 15.1624 25.6751 15.3867 25.6751H32.7343C32.9586 25.6751 33.0707 25.6751 33.1564 25.6311C33.2318 25.5924 33.293 25.5307 33.3314 25.4548C33.3751 25.3685 33.3751 25.2556 33.3751 25.0297V18.7106C33.3751 18.4847 33.3751 18.3717 33.3314 18.2855C33.293 18.2096 33.2318 18.1478 33.1564 18.1092C33.0707 18.0652 32.9586 18.0652 32.7343 18.0652H7.15002L7.15003 9.23112L13.2058 15.3401C13.549 15.6863 13.7206 15.8594 13.8679 15.8711C13.9958 15.8814 14.1207 15.8293 14.204 15.7311C14.3 15.6179 14.3 15.3733 14.3 14.8841V7.60988Z" fill="url(#paint4_linear_1011_9)"/>
<defs>
<linearGradient id="paint0_linear_1011_9" x1="80" y1="0" x2="80" y2="34" gradientUnits="userSpaceOnUse">
<stop stop-color="#222222"/>
<stop offset="1" stop-color="#111111"/>
</linearGradient>
<linearGradient id="paint1_linear_1011_9" x1="80" y1="0" x2="80" y2="34" gradientUnits="userSpaceOnUse">
<stop stop-color="#222222"/>
<stop offset="1" stop-color="#111111"/>
</linearGradient>
<linearGradient id="paint2_linear_1011_9" x1="80" y1="0" x2="80" y2="34" gradientUnits="userSpaceOnUse">
<stop stop-color="#222222"/>
<stop offset="1" stop-color="#111111"/>
</linearGradient>
<linearGradient id="paint3_linear_1011_9" x1="80" y1="0" x2="80" y2="34" gradientUnits="userSpaceOnUse">
<stop stop-color="#222222"/>
<stop offset="1" stop-color="#111111"/>
</linearGradient>
<linearGradient id="paint4_linear_1011_9" x1="80" y1="0" x2="80" y2="34" gradientUnits="userSpaceOnUse">
<stop stop-color="#222222"/>
<stop offset="1" stop-color="#111111"/>
</linearGradient>
</defs>
</svg>
