<svg width="143" height="30" viewBox="0 0 143 30" fill="none" xmlns="http://www.w3.org/2000/svg">
<path d="M40.7423 29.661C40.5574 29.661 40.465 29.661 40.3869 29.6569C38.853 29.5769 37.6273 28.3512 37.5473 26.8173C37.5432 26.7392 37.5432 26.6468 37.5432 26.4619V3.60063C37.5432 3.04264 37.5432 2.76364 37.5802 2.53021C37.7837 1.24692 38.7901 0.240483 40.0734 0.0370128C40.3069 0 40.5859 0 41.1438 0C41.474 0 41.6391 0 41.7932 0.0159613C42.6251 0.102125 43.3833 0.531684 43.8849 1.20101C43.9778 1.325 44.0627 1.4666 44.2324 1.74979L54.9563 19.6449C55.2959 20.2116 54.8876 20.9322 54.2269 20.9322C53.569 20.9322 53.1604 20.2171 53.4944 19.6503L64.0372 1.75722C64.1972 1.48554 64.2773 1.34971 64.3645 1.23034C64.8683 0.540713 65.6421 0.0984956 66.492 0.0145331C66.6391 0 66.7968 0 67.1121 0C67.6393 0 67.9029 0 68.1239 0.0331049C69.4245 0.227935 70.4466 1.24711 70.6451 2.54713C70.6788 2.76803 70.6796 3.03164 70.6811 3.55888L70.7461 26.454C70.7466 26.6383 70.7469 26.7304 70.743 26.8082C70.6675 28.3461 69.44 29.5771 67.9024 29.657C67.8246 29.661 67.7324 29.661 67.5481 29.661C67.3646 29.661 67.2729 29.661 67.1953 29.657C65.663 29.5776 64.4376 28.3548 64.3549 26.8226C64.3507 26.7451 64.3505 26.6533 64.3501 26.4698L64.3158 10.3015C64.3153 10.0649 64.5069 9.87288 64.7435 9.87288C65.0748 9.87288 65.2803 10.2333 65.1116 10.5184L56.43 25.1958C55.9425 26.0199 55.0562 26.5254 54.0988 26.5254C53.1503 26.5254 52.271 26.0293 51.7805 25.2175L42.9834 10.656C42.7756 10.312 43.0233 9.87288 43.4253 9.87288C43.7103 9.87288 43.9415 10.104 43.9415 10.3891V26.4619C43.9415 26.6468 43.9415 26.7392 43.9374 26.8173C43.8574 28.3512 42.6317 29.5769 41.0978 29.6569C41.0197 29.661 40.9272 29.661 40.7423 29.661Z" fill="url(#paint0_linear_1011_9)"/>
<path d="M86.522 30C83.9403 30 81.6672 29.4915 79.7028 28.4746C77.7665 27.4576 76.2652 26.0734 75.1988 24.322C74.1324 22.5424 73.5993 20.5226 73.5993 18.2627C73.5993 15.9746 74.1184 13.9548 75.1567 12.2034C76.2231 10.4237 77.6683 9.03955 79.4924 8.05085C81.3164 7.0339 83.379 6.52542 85.6802 6.52542C87.8971 6.52542 89.8895 7.00565 91.6575 7.9661C93.4535 8.89831 94.8706 10.2542 95.9089 12.0339C96.9472 13.7853 97.4664 15.8898 97.4664 18.3475C97.4664 18.6017 97.4524 18.8983 97.4243 19.2373C97.3787 19.7426 96.9536 20.1271 96.4463 20.1271H80.8731C79.8083 20.1271 78.9452 19.2639 78.9452 18.1992C78.9452 17.1344 79.8083 16.2712 80.8731 16.2712H91.8113C92.294 16.2712 92.4361 16.9291 91.9964 17.1283C91.6995 17.2627 91.3617 17.0452 91.3341 16.7204C91.2576 15.8216 91.0286 15.0222 90.6472 14.322C90.1702 13.4463 89.5107 12.7684 88.6688 12.2881C87.8269 11.7797 86.8448 11.5254 85.7223 11.5254C84.5998 11.5254 83.6035 11.7797 82.7336 12.2881C81.8917 12.7684 81.2323 13.4605 80.7552 14.3644C80.2781 15.2401 80.0396 16.2853 80.0396 17.5V18.517C80.0396 19.7599 80.3062 20.8616 80.8394 21.822C81.4006 22.7542 82.1723 23.4746 83.1545 23.9831C84.1648 24.4633 85.3434 24.7034 86.6904 24.7034C87.8971 24.7034 88.9494 24.5198 89.8474 24.1525C89.9321 24.119 90.016 24.0839 90.0993 24.0472C91.4853 23.4372 93.2179 23.4222 94.2408 24.5387C95.1664 25.549 95.2009 27.1303 94.0773 27.9145C93.4334 28.3638 92.725 28.7483 91.9521 29.0678C90.3806 29.6893 88.5706 30 86.522 30Z" fill="url(#paint1_linear_1011_9)"/>
<path d="M113.077 30C110.496 30 108.222 29.4915 106.258 28.4746C104.322 27.4576 102.82 26.0734 101.754 24.322C100.688 22.5424 100.154 20.5226 100.154 18.2627C100.154 15.9746 100.674 13.9548 101.712 12.2034C102.778 10.4237 104.224 9.03955 106.048 8.05085C107.872 7.0339 109.934 6.52542 112.235 6.52542C114.452 6.52542 116.445 7.00565 118.213 7.9661C120.009 8.89831 121.426 10.2542 122.464 12.0339C123.502 13.7853 124.022 15.8898 124.022 18.3475C124.022 18.6017 124.008 18.8983 123.98 19.2373C123.934 19.7426 123.509 20.1271 123.002 20.1271H107.428C106.364 20.1271 105.5 19.2639 105.5 18.1992C105.5 17.1344 106.364 16.2712 107.428 16.2712H118.367C118.849 16.2712 118.991 16.9291 118.552 17.1283C118.255 17.2627 117.917 17.0452 117.889 16.7204C117.813 15.8216 117.584 15.0222 117.202 14.322C116.725 13.4463 116.066 12.7684 115.224 12.2881C114.382 11.7797 113.4 11.5254 112.277 11.5254C111.155 11.5254 110.159 11.7797 109.289 12.2881C108.447 12.7684 107.787 13.4605 107.31 14.3644C106.833 15.2401 106.595 16.2853 106.595 17.5V18.517C106.595 19.7599 106.861 20.8616 107.395 21.822C107.956 22.7542 108.728 23.4746 109.71 23.9831C110.72 24.4633 111.899 24.7034 113.246 24.7034C114.452 24.7034 115.505 24.5198 116.403 24.1525C116.487 24.119 116.571 24.0839 116.654 24.0472C118.04 23.4372 119.773 23.4222 120.796 24.5387C121.722 25.549 121.756 27.1303 120.633 27.9145C119.989 28.3638 119.28 28.7483 118.507 29.0678C116.936 29.6893 115.126 30 113.077 30Z" fill="url(#paint2_linear_1011_9)"/>
<path d="M137.654 30C134.988 30 132.912 29.322 131.424 27.9661C129.937 26.5819 129.193 24.5339 129.193 21.822V5.10534C129.193 4.84227 129.193 4.71073 129.202 4.59973C129.312 3.1182 130.489 1.94037 131.971 1.83028C132.082 1.82204 132.213 1.82204 132.477 1.82204C132.74 1.82204 132.871 1.82204 132.982 1.83028C134.464 1.94037 135.642 3.1182 135.752 4.59973C135.76 4.71073 135.76 4.84227 135.76 5.10534V21.7373C135.76 22.6977 136.012 23.4463 136.518 23.9831C137.023 24.4915 137.71 24.7458 138.58 24.7458C139.991 24.7458 141.738 25.2316 142.238 26.5509L142.358 26.8654C142.736 27.8635 142.399 29.0217 141.398 29.3947C141.132 29.4941 140.852 29.5829 140.559 29.661C139.633 29.887 138.664 30 137.654 30ZM128.242 12.4576C126.838 12.4576 125.699 11.3194 125.699 9.91525C125.699 8.51114 126.838 7.37288 128.242 7.37288H138.858C140.262 7.37288 141.4 8.51114 141.4 9.91525C141.4 11.3194 140.262 12.4576 138.858 12.4576H128.242Z" fill="url(#paint3_linear_1011_9)"/>
<path fill-rule="evenodd" clip-rule="evenodd" d="M12.625 6.7146H28.8999C29.0979 6.7146 29.1969 6.7146 29.2726 6.67581C29.3391 6.64168 29.3932 6.58723 29.4271 6.52026C29.4656 6.44412 29.4656 6.34445 29.4656 6.14511V0.569493C29.4656 0.370153 29.4656 0.270482 29.4271 0.194344C29.3932 0.127371 29.3391 0.0729207 29.2726 0.0387963C29.1969 2.01911e-06 29.0979 2.0205e-06 28.8999 2.0205e-06H13.1907C12.9927 2.0205e-06 12.8937 2.01911e-06 12.818 0.0387963C12.7515 0.0729207 12.6974 0.127371 12.6635 0.194344C12.625 0.270482 12.625 0.370153 12.625 0.569493V6.7146L7.27858 1.32434C6.97559 1.01887 6.8241 0.866133 6.69401 0.855755C6.58114 0.84675 6.47082 0.892702 6.39726 0.979352C6.31249 1.07922 6.31249 1.29505 6.31249 1.72672V8.1451L0.96609 2.75485C0.663101 2.44937 0.511607 2.29663 0.381522 2.28626C0.268652 2.27725 0.158324 2.3232 0.0847712 2.40985C0 2.50972 0 2.72555 0 3.15722V9.33998C0 9.42694 0 9.47042 0.00975034 9.51135C0.018395 9.54763 0.0326536 9.58232 0.0520037 9.61415C0.0738288 9.65004 0.104349 9.68081 0.165389 9.74235L6.31249 15.9399V29.0915C6.31249 29.2909 6.31249 29.3905 6.35103 29.4667C6.38493 29.5336 6.43902 29.5881 6.50555 29.6222C6.58119 29.661 6.6802 29.661 6.87823 29.661H12.4529C12.6509 29.661 12.7499 29.661 12.8255 29.6222C12.8921 29.5881 12.9462 29.5336 12.9801 29.4667C13.0186 29.3905 13.0186 29.2909 13.0186 29.0915V23.224C13.0186 23.0246 13.0186 22.925 13.0571 22.8488C13.091 22.7818 13.1451 22.7274 13.2117 22.6933C13.2873 22.6545 13.3863 22.6545 13.5843 22.6545H28.8999C29.0979 22.6545 29.1969 22.6545 29.2726 22.6157C29.3391 22.5816 29.3932 22.5271 29.4271 22.4601C29.4656 22.384 29.4656 22.2843 29.4656 22.085V16.5094C29.4656 16.31 29.4656 16.2104 29.4271 16.1342C29.3932 16.0672 29.3391 16.0128 29.2726 15.9787C29.1969 15.9399 29.0979 15.9399 28.8999 15.9399H6.31249L6.31249 8.1451L11.6589 13.5354C11.9619 13.8408 12.1134 13.9936 12.2435 14.004C12.3563 14.013 12.4667 13.967 12.5402 13.8804C12.625 13.7805 12.625 13.5647 12.625 13.133V6.7146Z" fill="url(#paint4_linear_1011_9)"/>
<defs>
<linearGradient id="paint0_linear_1011_9" x1="70.629" y1="0" x2="70.629" y2="30" gradientUnits="userSpaceOnUse">
<stop stop-color="#222222"/>
<stop offset="1" stop-color="#111111"/>
</linearGradient>
<linearGradient id="paint1_linear_1011_9" x1="70.629" y1="0" x2="70.629" y2="30" gradientUnits="userSpaceOnUse">
<stop stop-color="#222222"/>
<stop offset="1" stop-color="#111111"/>
</linearGradient>
<linearGradient id="paint2_linear_1011_9" x1="70.629" y1="0" x2="70.629" y2="30" gradientUnits="userSpaceOnUse">
<stop stop-color="#222222"/>
<stop offset="1" stop-color="#111111"/>
</linearGradient>
<linearGradient id="paint3_linear_1011_9" x1="70.629" y1="0" x2="70.629" y2="30" gradientUnits="userSpaceOnUse">
<stop stop-color="#222222"/>
<stop offset="1" stop-color="#111111"/>
</linearGradient>
<linearGradient id="paint4_linear_1011_9" x1="70.629" y1="0" x2="70.629" y2="30" gradientUnits="userSpaceOnUse">
<stop stop-color="#222222"/>
<stop offset="1" stop-color="#111111"/>
</linearGradient>
</defs>
</svg>
