<svg width="32" height="32" viewBox="0 0 32 32" fill="none" xmlns="http://www.w3.org/2000/svg">
<rect width="32" height="32" rx="12.5" fill="url(#paint0_linear_1001_2)"/>
<path fill-rule="evenodd" clip-rule="evenodd" d="M14.9317 11.9139H23.1799C23.2803 11.9139 23.3305 11.9139 23.3688 11.8944C23.4025 11.8772 23.4299 11.8498 23.4471 11.8161C23.4667 11.7777 23.4667 11.7276 23.4667 11.6272V8.82005C23.4667 8.71969 23.4667 8.66951 23.4471 8.63118C23.4299 8.59746 23.4025 8.57004 23.3688 8.55286C23.3305 8.53333 23.2803 8.53333 23.1799 8.53333H15.2185C15.1181 8.53333 15.0679 8.53333 15.0296 8.55286C14.9959 8.57004 14.9684 8.59746 14.9513 8.63118C14.9317 8.66951 14.9317 8.71969 14.9317 8.82005V11.9139L12.2221 9.2001C12.0686 9.0463 11.9918 8.9694 11.9259 8.96418C11.8687 8.95964 11.8128 8.98278 11.7755 9.0264C11.7325 9.07668 11.7325 9.18535 11.7325 9.40268V12.6341L9.02294 9.92031C8.86939 9.76651 8.79261 9.68961 8.72668 9.68439C8.66948 9.67985 8.61356 9.70299 8.57629 9.74661C8.53333 9.79689 8.53333 9.90556 8.53333 10.1229V13.2357C8.53333 13.2795 8.53333 13.3014 8.53827 13.322C8.54265 13.3402 8.54987 13.3577 8.55968 13.3737C8.57074 13.3918 8.58621 13.4073 8.61715 13.4383L11.7325 16.5585V23.1799C11.7325 23.2803 11.7325 23.3305 11.7521 23.3688C11.7692 23.4025 11.7967 23.43 11.8304 23.4471C11.8687 23.4667 11.9189 23.4667 12.0192 23.4667H14.8445C14.9449 23.4667 14.995 23.4667 15.0334 23.4471C15.0671 23.43 15.0945 23.4025 15.1117 23.3688C15.1312 23.3305 15.1312 23.2803 15.1312 23.1799V20.2258C15.1312 20.1255 15.1312 20.0753 15.1508 20.037C15.1679 20.0032 15.1953 19.9758 15.2291 19.9586C15.2674 19.9391 15.3176 19.9391 15.4179 19.9391H23.1799C23.2803 19.9391 23.3305 19.9391 23.3688 19.9196C23.4025 19.9024 23.4299 19.875 23.4471 19.8413C23.4667 19.8029 23.4667 19.7527 23.4667 19.6524V16.8453C23.4667 16.7449 23.4667 16.6947 23.4471 16.6564C23.4299 16.6227 23.4025 16.5952 23.3688 16.5781C23.3305 16.5585 23.2803 16.5585 23.1799 16.5585H11.7325L11.7325 12.6341L14.4421 15.3479C14.5957 15.5017 14.6724 15.5786 14.7384 15.5839C14.7956 15.5884 14.8515 15.5653 14.8888 15.5216C14.9317 15.4713 14.9317 15.3627 14.9317 15.1454V11.9139Z" fill="white"/>
<defs>
<linearGradient id="paint0_linear_1001_2" x1="16" y1="0" x2="16" y2="32" gradientUnits="userSpaceOnUse">
<stop stop-color="#222222"/>
<stop offset="1" stop-color="#111111"/>
</linearGradient>
</defs>
</svg>
