<svg width="150" height="150" viewBox="0 0 150 150" fill="none" xmlns="http://www.w3.org/2000/svg">
<rect width="150" height="150" fill="url(#paint0_linear_1001_2)"/>
<path fill-rule="evenodd" clip-rule="evenodd" d="M69.9925 55.8465H108.656C109.126 55.8465 109.362 55.8465 109.541 55.7549C109.699 55.6744 109.828 55.5459 109.908 55.3878C110 55.2081 110 54.9729 110 54.5025V41.344C110 40.8736 110 40.6383 109.908 40.4586C109.828 40.3006 109.699 40.1721 109.541 40.0916C109.362 40 109.126 40 108.656 40H71.3365C70.8661 40 70.6309 40 70.4512 40.0916C70.2931 40.1721 70.1646 40.3006 70.0841 40.4586C69.9925 40.6383 69.9925 40.8736 69.9925 41.344V55.8465L57.2914 43.1254C56.5716 42.4045 56.2117 42.0441 55.9026 42.0196C55.6345 41.9983 55.3724 42.1068 55.1977 42.3113C54.9963 42.5469 54.9963 43.0563 54.9963 44.0751V59.2224L42.2951 46.5014C41.5753 45.7805 41.2154 45.4201 40.9064 45.3956C40.6382 45.3743 40.3761 45.4828 40.2014 45.6872C40 45.9229 40 46.4323 40 47.451V62.0423C40 62.2476 40 62.3502 40.0232 62.4468C40.0437 62.5324 40.0776 62.6143 40.1235 62.6894C40.1754 62.7741 40.2479 62.8467 40.3929 62.9919L54.9963 77.6181V108.656C54.9963 109.126 54.9963 109.362 55.0878 109.541C55.1684 109.699 55.2969 109.828 55.4549 109.908C55.6346 110 55.8698 110 56.3403 110H69.5836C70.0541 110 70.2893 110 70.469 109.908C70.627 109.828 70.7556 109.699 70.8361 109.541C70.9276 109.362 70.9276 109.126 70.9276 108.656V94.8086C70.9276 94.3381 70.9276 94.1029 71.0192 93.9232C71.0997 93.7652 71.2282 93.6367 71.3863 93.5561C71.566 93.4646 71.8012 93.4646 72.2716 93.4646H108.656C109.126 93.4646 109.362 93.4646 109.541 93.373C109.699 93.2925 109.828 93.164 109.908 93.0059C110 92.8262 110 92.591 110 92.1206V78.9621C110 78.4917 110 78.2564 109.908 78.0768C109.828 77.9187 109.699 77.7902 109.541 77.7097C109.362 77.6181 109.126 77.6181 108.656 77.6181H54.9963L54.9963 59.2224L67.6974 71.9435C68.4172 72.6644 68.7771 73.0248 69.0862 73.0493C69.3543 73.0706 69.6164 72.9621 69.7911 72.7576C69.9925 72.522 69.9925 72.0126 69.9925 70.9938V55.8465Z" fill="white"/>
<defs>
<linearGradient id="paint0_linear_1001_2" x1="75" y1="0" x2="75" y2="150" gradientUnits="userSpaceOnUse">
<stop stop-color="#1B91FA"/>
<stop offset="1" stop-color="#0041FF"/>
</linearGradient>
</defs>
</svg>
